<?plantuml 1.2026.2?><svg xmlns="http://www.w3.org/2000/svg" xmlns:xlink="http://www.w3.org/1999/xlink" contentStyleType="text/css" data-diagram-type="DESCRIPTION" height="366px" preserveAspectRatio="none" style="width:638px;height:366px;background:#FFFFFF;" version="1.1" viewBox="0 0 638 366" width="638px" zoomAndPan="magnify"><title>Photography Project Tool - Architecture</title><defs/><g><g class="title" data-source-line="1"><text fill="#000000" font-family="sans-serif" font-size="14" font-weight="bold" lengthAdjust="spacing" textLength="266.0273" x="178.9863" y="24.0752">Photography Project Tool - Architecture</text></g><!--cluster Presentation Layer--><g class="cluster" data-qualified-name="Presentation Layer" data-source-line="7" id="ent0002"><rect fill="none" height="89" rx="2.5" ry="2.5" style="stroke:#181818;stroke-width:1;" width="181" x="19" y="45.1514"/><text fill="#000000" font-family="sans-serif" font-size="14" font-weight="bold" lengthAdjust="spacing" textLength="126.0479" x="46.4761" y="61.2266">Presentation Layer</text></g><!--cluster Application / Logic Layer--><g class="cluster" data-qualified-name="Application . Logic Layer" data-source-line="12" id="ent0005"><rect fill="none" height="202" rx="2.5" ry="2.5" style="stroke:#181818;stroke-width:1;" width="198" x="7" y="158.1514"/><text fill="#000000" font-family="sans-serif" font-size="14" font-weight="bold" lengthAdjust="spacing" textLength="166.4688" x="22.7656" y="174.2266">Application / Logic Layer</text></g><!--cluster Domain Layer--><g class="cluster" data-qualified-name="Domain Layer" data-source-line="17" id="ent0008"><rect fill="none" height="89" rx="2.5" ry="2.5" style="stroke:#181818;stroke-width:1;" width="108" x="373" y="271.1514"/><text fill="#000000" font-family="sans-serif" font-size="14" font-weight="bold" lengthAdjust="spacing" textLength="92.5859" x="380.707" y="287.2266">Domain Layer</text></g><!--cluster Infrastructure Layer--><g class="cluster" data-qualified-name="Infrastructure Layer" data-source-line="21" id="ent0010"><rect fill="none" height="89" rx="2.5" ry="2.5" style="stroke:#181818;stroke-width:1;" width="403" x="229" y="158.1514"/><text fill="#000000" font-family="sans-serif" font-size="14" font-weight="bold" lengthAdjust="spacing" textLength="132.2686" x="364.3657" y="174.2266">Infrastructure Layer</text></g><!--entity CLI--><g class="entity" data-qualified-name="Presentation Layer.CLI" data-source-line="8" id="ent0003"><rect fill="#F1F1F1" height="37.1514" rx="2.5" ry="2.5" style="stroke:#181818;stroke-width:0.5;" width="41.7861" x="142" y="81.1514"/><text fill="#000000" font-family="sans-serif" font-size="14" lengthAdjust="spacing" textLength="21.7861" x="152" y="105.2266">CLI</text></g><!--entity Website--><g class="entity" data-qualified-name="Presentation Layer.Website" data-source-line="9" id="ent0004"><rect fill="#F1F1F1" height="37.1514" rx="2.5" ry="2.5" style="stroke:#181818;stroke-width:0.5;" width="70.5723" x="35.5" y="81.1514"/><text fill="#000000" font-family="sans-serif" font-size="14" lengthAdjust="spacing" textLength="50.5723" x="45.5" y="105.2266">Website</text></g><!--entity Services--><g class="entity" data-qualified-name="Application . Logic Layer.Services" data-source-line="13" id="ent0006"><rect fill="#F1F1F1" height="37.1514" rx="2.5" ry="2.5" style="stroke:#181818;stroke-width:0.5;" width="73.6826" x="92" y="194.1514"/><text fill="#000000" font-family="sans-serif" font-size="14" lengthAdjust="spacing" textLength="53.6826" x="102" y="218.2266">Services</text></g><!--entity Infrastructure Contracts--><g class="entity" data-qualified-name="Application . Logic Layer.Infrastructure Contracts" data-source-line="14" id="ent0007"><rect fill="#F1F1F1" height="37.1514" rx="2.5" ry="2.5" style="stroke:#181818;stroke-width:0.5;" width="166.2754" x="23" y="307.1514"/><text fill="#000000" font-family="sans-serif" font-size="14" lengthAdjust="spacing" textLength="146.2754" x="33" y="331.2266">Infrastructure Contracts</text></g><!--entity Entities--><g class="entity" data-qualified-name="Domain Layer.Entities" data-source-line="18" id="ent0009"><rect fill="#F1F1F1" height="37.1514" rx="2.5" ry="2.5" style="stroke:#181818;stroke-width:0.5;" width="65.9102" x="394" y="307.1514"/><text fill="#000000" font-family="sans-serif" font-size="14" lengthAdjust="spacing" textLength="45.9102" x="404" y="331.2266">Entities</text></g><!--entity Repositories--><g class="entity" data-qualified-name="Infrastructure Layer.Repositories" data-source-line="22" id="ent0011"><rect fill="#F1F1F1" height="37.1514" rx="2.5" ry="2.5" style="stroke:#181818;stroke-width:0.5;" width="97.8135" x="518" y="194.1514"/><text fill="#000000" font-family="sans-serif" font-size="14" lengthAdjust="spacing" textLength="77.8135" x="528" y="218.2266">Repositories</text></g><!--entity File System--><g class="entity" data-qualified-name="Infrastructure Layer.File System" data-source-line="23" id="ent0012"><rect fill="#F1F1F1" height="37.1514" rx="2.5" ry="2.5" style="stroke:#181818;stroke-width:0.5;" width="93.124" x="389.5" y="194.1514"/><text fill="#000000" font-family="sans-serif" font-size="14" lengthAdjust="spacing" textLength="73.124" x="399.5" y="218.2266">File System</text></g><!--entity External Tools--><g class="entity" data-qualified-name="Infrastructure Layer.External Tools" data-source-line="24" id="ent0013"><rect fill="#F1F1F1" height="37.1514" rx="2.5" ry="2.5" style="stroke:#181818;stroke-width:0.5;" width="109.4824" x="245.5" y="194.1514"/><text fill="#000000" font-family="sans-serif" font-size="14" lengthAdjust="spacing" textLength="89.4824" x="255.5" y="218.2266">External Tools</text></g><!--link CLI to Services--><g class="link" data-entity-1="ent0003" data-entity-2="ent0006" data-link-type="dependency" data-source-line="27" id="lnk14"><path d="M157.54,118.4814 C151.19,139.2014 142.5479,167.4347 136.2079,188.1247" fill="none" id="CLI-to-Services" style="stroke:#181818;stroke-width:1;"/><polygon fill="#181818" points="134.45,193.8614,140.9113,186.4282,135.9149,189.0808,133.2624,184.0844,134.45,193.8614" style="stroke:#181818;stroke-width:1;"/></g><!--link Website to Services--><g class="link" data-entity-1="ent0004" data-entity-2="ent0006" data-link-type="dependency" data-source-line="28" id="lnk15"><path d="M80.32,118.4814 C91.14,139.2014 106.1115,167.8535 116.9215,188.5435" fill="none" id="Website-to-Services" style="stroke:#181818;stroke-width:1;"/><polygon fill="#181818" points="119.7,193.8614,119.0776,184.0322,117.3846,189.4298,111.987,187.7368,119.7,193.8614" style="stroke:#181818;stroke-width:1;"/></g><!--link Services to Entities--><g class="link" data-entity-1="ent0006" data-entity-2="ent0009" data-link-type="dependency" data-source-line="30" id="lnk16"><path d="M166.32,229.7214 C185.03,237.6314 208.11,247.1614 229,255.1514 C286.5,277.1514 348.6821,298.4815 388.1721,311.7415" fill="none" id="Services-to-Entities" style="stroke:#181818;stroke-width:1;"/><polygon fill="#181818" points="393.86,313.6514,386.6014,306.9946,389.1201,312.0598,384.0549,314.5785,393.86,313.6514" style="stroke:#181818;stroke-width:1;"/></g><!--link Services to Infrastructure Contracts--><g class="link" data-entity-1="ent0006" data-entity-2="ent0007" data-link-type="dependency" data-source-line="31" id="lnk17"><path d="M125.3,231.4814 C121.01,252.2014 115.1854,280.2958 110.9054,300.9858" fill="none" id="Services-to-Infrastructure Contracts" style="stroke:#181818;stroke-width:1;"/><polygon fill="#181818" points="109.69,306.8614,115.4302,298.8583,110.7029,301.965,107.5961,297.2377,109.69,306.8614" style="stroke:#181818;stroke-width:1;"/></g><!--link Repositories to Infrastructure Contracts--><g class="link" data-entity-1="ent0011" data-entity-2="ent0007" data-link-type="extension" data-source-line="33" id="lnk18"><path d="M544.82,231.2414 C532.38,240.0814 516.16,249.9714 500,255.1514 C448.25,271.7314 431.78,255.3614 378,263.1514 C306.13,273.5714 242.5226,288.3688 187.7426,302.5888" fill="none" id="Repositories-to-Infrastructure Contracts" style="stroke:#181818;stroke-width:1;stroke-dasharray:7,7;"/><polygon fill="none" points="170.32,307.1114,189.2501,308.3963,186.235,296.7812,170.32,307.1114" style="stroke:#181818;stroke-width:1;"/></g><!--link File System to Infrastructure Contracts--><g class="link" data-entity-1="ent0012" data-entity-2="ent0007" data-link-type="extension" data-source-line="34" id="lnk19"><path d="M412.72,231.3314 C401.01,239.5314 386.3,248.8414 372,255.1514 C313.26,281.0614 260.4451,295.2769 206.8151,306.3969" fill="none" id="File System-to-Infrastructure Contracts" style="stroke:#181818;stroke-width:1;stroke-dasharray:7,7;"/><polygon fill="none" points="189.19,310.0514,208.0333,312.2719,205.5969,300.5218,189.19,310.0514" style="stroke:#181818;stroke-width:1;"/></g><!--link External Tools to Infrastructure Contracts--><g class="link" data-entity-1="ent0013" data-entity-2="ent0007" data-link-type="extension" data-source-line="35" id="lnk20"><path d="M269.26,231.2414 C232.93,252.0214 188.4847,277.4644 152.2247,298.2044" fill="none" id="External Tools-to-Infrastructure Contracts" style="stroke:#181818;stroke-width:1;stroke-dasharray:7,7;"/><polygon fill="none" points="136.6,307.1414,155.2037,303.4126,149.2457,292.9961,136.6,307.1414" style="stroke:#181818;stroke-width:1;"/></g><!--link Repositories to Entities--><g class="link" data-entity-1="ent0011" data-entity-2="ent0009" data-link-type="dependency" data-source-line="37" id="lnk21"><path d="M544.82,231.2414 C518.6,252.0214 479.9523,282.6747 453.7823,303.4147" fill="none" id="Repositories-to-Entities" style="stroke:#181818;stroke-width:1;"/><polygon fill="#181818" points="449.08,307.1414,458.618,304.6863,452.9986,304.0358,453.6491,298.4165,449.08,307.1414" style="stroke:#181818;stroke-width:1;"/></g><?plantuml-src XL5DRy8m3BtdLrYzm_x19CIOXCG1mQITG-OLZpQE73EjslRV5ze9sh2EdAAy3_kzA6c5iDwpSYasx1jO2x-XKtXYhc02Ct5xqlHm53H6EO0ox5YLQtWXIG2nD_50FbYnDGJh3hR4hJR9zmHRNrRO8pYk0tlqcbFChnIAjM1C17koXfLjK0huD93EMGp5VBKiyhTdtCMqR66-Uswp42fodTaThBWaDsgwHNadX_7AUUbVnKQLOri4pDchMATnEEg1QqlZAo-yaX9ceinwJBp1m2aS2_sntYEbAhTDLAoliCM7edXRjJ_QpMxBWydalf_ut5uEcCkzWouvScIy9ZCC0DFfrx_yGQJRx2paJK6-JfRh1m00?></g></svg>