<?plantuml 1.2026.2?><svg xmlns="http://www.w3.org/2000/svg" xmlns:xlink="http://www.w3.org/1999/xlink" contentStyleType="text/css" data-diagram-type="DESCRIPTION" height="341px" preserveAspectRatio="none" style="width:924px;height:341px;background:#FFFFFF;" version="1.1" viewBox="0 0 924 341" width="924px" zoomAndPan="magnify"><title>Photography Project Folder Structure</title><defs/><g><g class="title" data-source-line="1"><text fill="#000000" font-family="sans-serif" font-size="14" font-weight="bold" lengthAdjust="spacing" textLength="250.4756" x="329.7622" y="24.0752">Photography Project Folder Structure</text></g><!--cluster project--><g class="cluster" data-qualified-name="project" data-source-line="3" id="ent0002"><path d="M8.5,44.1514 L128.582,44.1514 A3.75,3.75 0 0 1 131.082,46.6514 L138.082,67.3027 L914.5,67.3027 A2.5,2.5 0 0 1 917,69.8027 L917,331.6514 A2.5,2.5 0 0 1 914.5,334.1514 L8.5,334.1514 A2.5,2.5 0 0 1 6,331.6514 L6,46.6514 A2.5,2.5 0 0 1 8.5,44.1514" fill="none" style="stroke:#000000;stroke-width:1.5;"/><line style="stroke:#000000;stroke-width:1.5;" x1="6" x2="138.082" y1="67.3027" y2="67.3027"/><text fill="#000000" font-family="sans-serif" font-size="14" font-weight="bold" lengthAdjust="spacing" textLength="119.082" x="10" y="60.2266">2026-04-04-Kalkar</text></g><!--cluster rootOriginals--><g class="cluster" data-qualified-name="project.rootOriginals" data-source-line="6" id="ent0004"><path d="M588.5,97.1514 L647.8447,97.1514 A3.75,3.75 0 0 1 650.3447,99.6514 L657.3447,120.3027 L890.5,120.3027 A2.5,2.5 0 0 1 893,122.8027 L893,298.6514 A2.5,2.5 0 0 1 890.5,301.1514 L588.5,301.1514 A2.5,2.5 0 0 1 586,298.6514 L586,99.6514 A2.5,2.5 0 0 1 588.5,97.1514" fill="none" style="stroke:#000000;stroke-width:1.5;"/><line style="stroke:#000000;stroke-width:1.5;" x1="586" x2="657.3447" y1="120.3027" y2="120.3027"/><text fill="#000000" font-family="sans-serif" font-size="14" font-weight="bold" lengthAdjust="spacing" textLength="58.3447" x="590" y="113.2266">originals</text></g><!--cluster saturday--><g class="cluster" data-qualified-name="project.saturday" data-source-line="18" id="ent0010"><path d="M343.5,88.1514 L406.748,88.1514 A3.75,3.75 0 0 1 409.248,90.6514 L416.248,111.3027 L559.5,111.3027 A2.5,2.5 0 0 1 562,113.8027 L562,307.6514 A2.5,2.5 0 0 1 559.5,310.1514 L343.5,310.1514 A2.5,2.5 0 0 1 341,307.6514 L341,90.6514 A2.5,2.5 0 0 1 343.5,88.1514" fill="none" style="stroke:#000000;stroke-width:1.5;"/><line style="stroke:#000000;stroke-width:1.5;" x1="341" x2="416.248" y1="111.3027" y2="111.3027"/><text fill="#000000" font-family="sans-serif" font-size="14" font-weight="bold" lengthAdjust="spacing" textLength="62.248" x="345" y="104.2266">.saturday</text></g><!--entity projectInfo--><g class="entity" data-qualified-name="project.projectInfo" data-source-line="4" id="ent0003"><path d="M234,135.6514 L234,167.8027 A2.5,2.5 0 0 0 236.5,170.3027 L319.9824,170.3027 A2.5,2.5 0 0 0 322.4824,167.8027 L322.4824,143.1514 L312.4824,133.1514 L236.5,133.1514 A2.5,2.5 0 0 0 234,135.6514" fill="#F1F1F1" style="stroke:#181818;stroke-width:0.5;"/><path d="M312.4824,133.1514 L312.4824,140.6514 A2.5,2.5 0 0 0 314.9824,143.1514 L322.4824,143.1514" fill="#F1F1F1" style="stroke:#181818;stroke-width:0.5;"/><text fill="#000000" font-family="sans-serif" font-size="14" lengthAdjust="spacing" textLength="68.4824" x="244" y="157.2266">project.info</text></g><!--entity jpg1234--><g class="entity" data-qualified-name="project.rootOriginals.jpg1234" data-source-line="7" id="ent0005"><path d="M602,135.6514 L602,167.8027 A2.5,2.5 0 0 0 604.5,170.3027 L719.1064,170.3027 A2.5,2.5 0 0 0 721.6064,167.8027 L721.6064,143.1514 L711.6064,133.1514 L604.5,133.1514 A2.5,2.5 0 0 0 602,135.6514" fill="#F1F1F1" style="stroke:#181818;stroke-width:0.5;"/><path d="M711.6064,133.1514 L711.6064,140.6514 A2.5,2.5 0 0 0 714.1064,143.1514 L721.6064,143.1514" fill="#F1F1F1" style="stroke:#181818;stroke-width:0.5;"/><text fill="#000000" font-family="sans-serif" font-size="14" lengthAdjust="spacing" textLength="99.6064" x="612" y="157.2266">DSC_1234.JPG</text></g><!--entity nef1234--><g class="entity" data-qualified-name="project.rootOriginals.nef1234" data-source-line="8" id="ent0006"><path d="M757,135.6514 L757,167.8027 A2.5,2.5 0 0 0 759.5,170.3027 L874.8789,170.3027 A2.5,2.5 0 0 0 877.3789,167.8027 L877.3789,143.1514 L867.3789,133.1514 L759.5,133.1514 A2.5,2.5 0 0 0 757,135.6514" fill="#F1F1F1" style="stroke:#181818;stroke-width:0.5;"/><path d="M867.3789,133.1514 L867.3789,140.6514 A2.5,2.5 0 0 0 869.8789,143.1514 L877.3789,143.1514" fill="#F1F1F1" style="stroke:#181818;stroke-width:0.5;"/><text fill="#000000" font-family="sans-serif" font-size="14" lengthAdjust="spacing" textLength="100.3789" x="767" y="157.2266">DSC_1234.NEF</text></g><!--entity jpg1235--><g class="entity" data-qualified-name="project.rootOriginals.jpg1235" data-source-line="9" id="ent0007"><path d="M602,250.6514 L602,282.8027 A2.5,2.5 0 0 0 604.5,285.3027 L719.1064,285.3027 A2.5,2.5 0 0 0 721.6064,282.8027 L721.6064,258.1514 L711.6064,248.1514 L604.5,248.1514 A2.5,2.5 0 0 0 602,250.6514" fill="#F1F1F1" style="stroke:#181818;stroke-width:0.5;"/><path d="M711.6064,248.1514 L711.6064,255.6514 A2.5,2.5 0 0 0 714.1064,258.1514 L721.6064,258.1514" fill="#F1F1F1" style="stroke:#181818;stroke-width:0.5;"/><text fill="#000000" font-family="sans-serif" font-size="14" lengthAdjust="spacing" textLength="99.6064" x="612" y="272.2266">DSC_1235.JPG</text></g><!--entity rootEditing--><g class="entity" data-qualified-name="project.rootEditing" data-source-line="12" id="ent0008"><path d="M130,124.1514 L171,124.1514 A3.75,3.75 0 0 1 173.5,126.6514 L180.5,145.1514 L196.2549,145.1514 A2.5,2.5 0 0 1 198.7549,147.6514 L198.7549,176.8027 A2.5,2.5 0 0 1 196.2549,179.3027 L130,179.3027 A2.5,2.5 0 0 1 127.5,176.8027 L127.5,126.6514 A2.5,2.5 0 0 1 130,124.1514" fill="#F1F1F1" style="stroke:#181818;stroke-width:0.5;"/><line style="stroke:#181818;stroke-width:0.5;" x1="127.5" x2="180.5" y1="145.1514" y2="145.1514"/><text fill="#000000" font-family="sans-serif" font-size="14" lengthAdjust="spacing" textLength="41.2549" x="137.5" y="166.2266">editing</text></g><!--entity rootFinals--><g class="entity" data-qualified-name="project.rootFinals" data-source-line="15" id="ent0009"><path d="M24.5,124.1514 L65.5,124.1514 A3.75,3.75 0 0 1 68,126.6514 L75,145.1514 L89.5,145.1514 A2.5,2.5 0 0 1 92,147.6514 L92,176.8027 A2.5,2.5 0 0 1 89.5,179.3027 L24.5,179.3027 A2.5,2.5 0 0 1 22,176.8027 L22,126.6514 A2.5,2.5 0 0 1 24.5,124.1514" fill="#F1F1F1" style="stroke:#181818;stroke-width:0.5;"/><line style="stroke:#181818;stroke-width:0.5;" x1="22" x2="75" y1="145.1514" y2="145.1514"/><text fill="#000000" font-family="sans-serif" font-size="14" lengthAdjust="spacing" textLength="32.6826" x="32" y="166.2266">finals</text></g><!--entity saturdayOriginals--><g class="entity" data-qualified-name="project.saturday.saturdayOriginals" data-source-line="19" id="ent0011"><path d="M359.5,124.1514 L400.5,124.1514 A3.75,3.75 0 0 1 403,126.6514 L410,145.1514 L436.6377,145.1514 A2.5,2.5 0 0 1 439.1377,147.6514 L439.1377,176.8027 A2.5,2.5 0 0 1 436.6377,179.3027 L359.5,179.3027 A2.5,2.5 0 0 1 357,176.8027 L357,126.6514 A2.5,2.5 0 0 1 359.5,124.1514" fill="#F1F1F1" style="stroke:#181818;stroke-width:0.5;"/><line style="stroke:#181818;stroke-width:0.5;" x1="357" x2="410" y1="145.1514" y2="145.1514"/><text fill="#000000" font-family="sans-serif" font-size="14" lengthAdjust="spacing" textLength="52.1377" x="367" y="166.2266">originals</text></g><!--entity saturdayEditing--><g class="entity" data-qualified-name="project.saturday.saturdayEditing" data-source-line="20" id="ent0012"><path d="M477,124.1514 L518,124.1514 A3.75,3.75 0 0 1 520.5,126.6514 L527.5,145.1514 L543.2549,145.1514 A2.5,2.5 0 0 1 545.7549,147.6514 L545.7549,176.8027 A2.5,2.5 0 0 1 543.2549,179.3027 L477,179.3027 A2.5,2.5 0 0 1 474.5,176.8027 L474.5,126.6514 A2.5,2.5 0 0 1 477,124.1514" fill="#F1F1F1" style="stroke:#181818;stroke-width:0.5;"/><line style="stroke:#181818;stroke-width:0.5;" x1="474.5" x2="527.5" y1="145.1514" y2="145.1514"/><text fill="#000000" font-family="sans-serif" font-size="14" lengthAdjust="spacing" textLength="41.2549" x="484.5" y="166.2266">editing</text></g><!--entity saturdayFinals--><g class="entity" data-qualified-name="project.saturday.saturdayFinals" data-source-line="21" id="ent0013"><path d="M365.5,239.1514 L406.5,239.1514 A3.75,3.75 0 0 1 409,241.6514 L416,260.1514 L430.5,260.1514 A2.5,2.5 0 0 1 433,262.6514 L433,291.8027 A2.5,2.5 0 0 1 430.5,294.3027 L365.5,294.3027 A2.5,2.5 0 0 1 363,291.8027 L363,241.6514 A2.5,2.5 0 0 1 365.5,239.1514" fill="#F1F1F1" style="stroke:#181818;stroke-width:0.5;"/><line style="stroke:#181818;stroke-width:0.5;" x1="363" x2="416" y1="260.1514" y2="260.1514"/><text fill="#000000" font-family="sans-serif" font-size="14" lengthAdjust="spacing" textLength="32.6826" x="373" y="281.2266">finals</text></g><?plantuml-src TP1B3e8m54NdNKN3N888Ra2jKHCbOG6cWHQAX99I1iImTw6Klv1ExilXvBudcKm9z68kUIHm7bVG4pmXWOI8fo4Hq9UY36Gf202qcnYsPHztbjE-1qu_M1WG5p3N_tq1R3xA6gsXPoRBA9z2joQ3ZjDEBbZ4CfmM2XESorS_qSRHUlPFxxrzSCoxTrLuaaTjtiAU5wImZD1jp5tON8NLyvOaP99bqT3nqcNTS07J-Jvekim2DGlSd3Z4bQBxC5tyxvbwS3ZLYfyMxcbTUiNIjHYDrXhKFm00?></g></svg>